<svg width="1000" height="1000" viewBox="0 0 1000 1000" fill="none" xmlns="http://www.w3.org/2000/svg">
<g clip-path="url(#clip0_250_303)">
<rect width="1000" height="1000" rx="500" fill="#111111"/>
<path d="M339.526 329C330.169 329 321.224 332.857 314.801 339.662L232.653 426.695C212.186 448.381 227.559 484.033 257.379 484.033H403.566C408.904 484.033 411.584 490.479 407.82 494.264L236.789 666.219C215.042 688.083 231.298 725.28 262.116 724.174L444.616 717.62C452.891 717.323 460.773 714.017 466.783 708.321L588.963 592.536L589.086 592.42L589.206 592.301L795.508 387.106C817.016 365.714 801.866 329 771.531 329H339.526Z" fill="#6D6D6D" stroke="#15141C" stroke-width="28"/>
<path d="M323.526 279C314.169 279 305.224 282.857 298.801 289.662L216.653 376.695C196.186 398.381 211.559 434.033 241.379 434.033H387.566C392.904 434.033 395.584 440.479 391.82 444.264L220.789 616.219C199.042 638.083 215.298 675.28 246.116 674.174L428.616 667.62C436.891 667.323 444.773 664.017 450.783 658.321L572.963 542.536L573.086 542.42L573.206 542.301L779.508 337.106C801.016 315.714 785.866 279 755.531 279H323.526Z" fill="white" stroke="#15141C" stroke-width="28"/>
</g>
<defs>
<clipPath id="clip0_250_303">
<rect width="1000" height="1000" fill="white"/>
</clipPath>
</defs>
</svg>
