<svg width="403" height="502" viewBox="0 0 403 502" fill="none" xmlns="http://www.w3.org/2000/svg">
<path fill-rule="evenodd" clip-rule="evenodd" d="M0 428.431C0 455.248 32.5006 468.592 51.3449 449.512L178.366 320.899C190.029 309.089 209.065 308.995 220.845 320.688L351.865 450.742C370.796 469.534 403 456.124 403 429.451V30C403 13.4315 389.569 0 373 0H101H30C13.4315 0 0 13.4315 0 30V428.431ZM299.5 129C299.5 112.431 286.069 99 269.5 99H130C113.431 99 100 112.431 100 129V221C100 237.569 113.431 251 130 251H269.5C286.069 251 299.5 237.569 299.5 221V129Z" fill="#D9D9D9"/>
<rect x="123" y="123.5" width="28.6421" height="28.6421" rx="14.321" fill="white"/>
</svg>
